<svg width="192" height="82" viewBox="0 0 192 82" fill="none" xmlns="http://www.w3.org/2000/svg">
<path d="M8.325 33.04C8.325 32.53 8.385 32.185 8.505 32.005C8.655 31.795 8.91 31.69 9.27 31.69C9.66 31.69 10.32 32.095 11.25 32.905C12.18 33.715 12.675 34.435 12.735 35.065C12.855 36.145 13.425 38.065 14.445 40.825C15.465 43.555 16.635 46.33 17.955 49.15C19.635 47.17 21.75 44.545 24.3 41.275C26.85 37.975 28.74 35.635 29.97 34.255C31.2 32.875 32.085 32.185 32.625 32.185C33.165 32.185 33.735 32.485 34.335 33.085C34.935 33.685 35.235 34.255 35.235 34.795C35.235 35.335 35.175 35.95 35.055 36.64C34.935 37.33 34.725 38.245 34.425 39.385C34.155 40.495 33.9 41.47 33.66 42.31C33.45 43.12 33.09 44.395 32.58 46.135C32.07 47.875 31.68 49.27 31.41 50.32C31.14 51.34 30.825 52.6 30.465 54.1C30.105 55.57 29.805 56.785 29.565 57.745C29.355 58.675 29.13 59.59 28.89 60.49C28.44 62.23 28.005 63.1 27.585 63.1C27.195 63.1 26.805 62.74 26.415 62.02C26.025 61.3 25.83 60.34 25.83 59.14C25.83 57.91 26.34 55.12 27.36 50.77C28.41 46.42 29.535 42.61 30.735 39.34C25.215 46.24 21.81 50.365 20.52 51.715C19.26 53.065 18.21 53.74 17.37 53.74C16.56 53.74 15.795 53.275 15.075 52.345C13.995 50.785 12.54 47.095 10.71 41.275C10.2 44.425 9.63 47.125 9 49.375C8.4 51.595 7.995 53.08 7.785 53.83C7.605 54.55 7.44 55.15 7.29 55.63C7.17 56.11 7.02 56.68 6.84 57.34C6.66 57.97 6.495 58.495 6.345 58.915C6.225 59.335 6.09 59.8 5.94 60.31C5.79 60.79 5.655 61.18 5.535 61.48C5.445 61.78 5.34 62.065 5.22 62.335C4.98 62.845 4.8 63.1 4.68 63.1C4.32 63.1 3.87 62.71 3.33 61.93C2.79 61.15 2.52 60.4 2.52 59.68C2.52 58.96 3.48 54.82 5.4 47.26C7.35 39.7 8.325 34.96 8.325 33.04ZM54.4978 41.005C54.9778 41.005 55.4878 41.365 56.0278 42.085C56.5978 42.775 56.8828 43.555 56.8828 44.425C56.8828 45.025 56.2678 47.065 55.0378 50.545C53.8078 54.025 52.9678 56.395 52.5178 57.655C52.0978 58.885 51.5128 60.535 50.7628 62.605C50.0428 64.645 49.3378 66.64 48.6478 68.59C47.1478 72.88 44.8978 75.025 41.8978 75.025C40.1878 75.025 38.5528 74.5 36.9928 73.45C35.4328 72.43 34.6528 71.365 34.6528 70.255C34.6528 69.835 34.8478 69.37 35.2378 68.86C35.5978 68.35 35.9128 68.095 36.1828 68.095C36.4528 68.095 36.8878 68.425 37.4878 69.085C39.2278 71.065 40.7128 72.055 41.9428 72.055C42.8728 72.055 43.7128 71.23 44.4628 69.58C45.2128 67.96 45.9178 66.115 46.5778 64.045C47.2678 62.005 47.6428 60.88 47.7028 60.67C47.7928 60.46 47.8828 60.19 47.9728 59.86C48.0928 59.53 48.1978 59.23 48.2878 58.96C46.1578 61.87 44.0578 63.325 41.9878 63.325C40.7278 63.325 39.5578 62.74 38.4778 61.57C37.4278 60.4 36.9028 59.02 36.9028 57.43C36.9028 55.84 37.2928 53.695 38.0728 50.995C38.8528 48.295 39.7678 45.955 40.8178 43.975C41.8678 41.995 42.7228 41.005 43.3828 41.005C43.9228 41.005 44.4178 41.26 44.8678 41.77C45.3478 42.25 45.5878 42.745 45.5878 43.255C45.5878 43.765 45.1978 44.83 44.4178 46.45C41.9878 51.43 40.7728 55.3 40.7728 58.06C40.7728 58.54 40.9228 58.945 41.2228 59.275C41.5228 59.575 41.8828 59.725 42.3028 59.725C43.3828 59.725 44.6728 58.765 46.1728 56.845C47.6728 54.925 49.0528 52.645 50.3128 50.005C51.3628 47.785 52.4578 44.95 53.5978 41.5C53.7178 41.17 54.0178 41.005 54.4978 41.005Z" fill="white"/>
<path d="M87.2 20.92C88.24 20.92 89.3 21.58 90.38 22.9C91.5 24.22 92.06 25.32 92.06 26.2C92.06 27.04 91.9 27.46 91.58 27.46C91.3 27.46 90.74 27.32 89.9 27.04C89.06 26.72 88.3 26.56 87.62 26.56C86.06 26.56 84.16 27.36 81.92 28.96C79.72 30.56 77.62 32.54 75.62 34.9C73.66 37.26 71.98 39.96 70.58 43C69.18 46 68.48 48.6 68.48 50.8C68.48 53 69.04 54.62 70.16 55.66C71.32 56.66 72.82 57.16 74.66 57.16C76.5 57.16 78.4 56.9 80.36 56.38C82.32 55.82 83.92 55.2 85.16 54.52C88.36 52.8 90.12 51.94 90.44 51.94C91.12 51.94 91.46 52.4 91.46 53.32C91.46 54.2 90.54 55.4 88.7 56.92C86.86 58.4 84.58 59.74 81.86 60.94C79.14 62.14 76.7 62.74 74.54 62.74C71.74 62.74 69.1 61.54 66.62 59.14C64.14 56.7 62.9 54.02 62.9 51.1C62.9 47.34 64.12 43.1 66.56 38.38C69.04 33.62 72.2 29.52 76.04 26.08C79.92 22.64 83.64 20.92 87.2 20.92ZM114.898 43.54C114.898 42.18 114.678 40.9 114.238 39.7C113.798 38.46 113.158 37.56 112.318 37C109.558 37.76 107.178 39.9 105.178 43.42C103.218 46.9 102.238 50.18 102.238 53.26C102.238 56.34 102.998 58.26 104.518 59.02C107.398 58.46 109.838 56.5 111.838 53.14C113.878 49.74 114.898 46.54 114.898 43.54ZM99.118 44.08C100.518 40.96 102.338 38.4 104.578 36.4C106.858 34.36 109.178 33.34 111.538 33.34C113.938 33.34 115.938 34.36 117.538 36.4C119.138 38.4 119.938 40.86 119.938 43.78C119.938 46.66 119.238 49.62 117.838 52.66C116.438 55.66 114.498 58.16 112.018 60.16C109.578 62.12 106.978 63.1 104.218 63.1C102.178 63.1 100.478 62.16 99.118 60.28C97.758 58.4 97.078 56.02 97.078 53.14C97.078 50.22 97.758 47.2 99.118 44.08ZM142.085 43.54C142.085 42.18 141.865 40.9 141.425 39.7C140.985 38.46 140.345 37.56 139.505 37C136.745 37.76 134.365 39.9 132.365 43.42C130.405 46.9 129.425 50.18 129.425 53.26C129.425 56.34 130.185 58.26 131.705 59.02C134.585 58.46 137.025 56.5 139.025 53.14C141.065 49.74 142.085 46.54 142.085 43.54ZM126.305 44.08C127.705 40.96 129.525 38.4 131.765 36.4C134.045 34.36 136.365 33.34 138.725 33.34C141.125 33.34 143.125 34.36 144.725 36.4C146.325 38.4 147.125 40.86 147.125 43.78C147.125 46.66 146.425 49.62 145.025 52.66C143.625 55.66 141.685 58.16 139.205 60.16C136.765 62.12 134.165 63.1 131.405 63.1C129.365 63.1 127.665 62.16 126.305 60.28C124.945 58.4 124.265 56.02 124.265 53.14C124.265 50.22 124.945 47.2 126.305 44.08ZM177.673 36.58C177.673 36.94 175.893 38.82 172.333 42.22C171.013 43.5 169.793 45.02 168.673 46.78C167.593 48.5 167.053 50.08 167.053 51.52C167.053 52.96 167.473 54.3 168.313 55.54C169.193 56.74 170.133 57.66 171.133 58.3C172.173 58.9 173.113 59.5 173.953 60.1C174.833 60.7 175.273 61.2 175.273 61.6C175.273 62.6 174.473 63.1 172.873 63.1C171.313 63.1 169.433 62.22 167.233 60.46C165.073 58.66 163.733 56.66 163.213 54.46C163.013 54.06 162.853 53.68 162.733 53.32C160.013 57 158.033 59.56 156.793 61C155.593 62.4 154.693 63.1 154.093 63.1C153.493 63.1 152.833 62.64 152.113 61.72C151.393 60.76 151.033 59.98 151.033 59.38C151.033 58.74 151.673 56.16 152.953 51.64C154.273 47.08 155.573 41.62 156.853 35.26C158.173 28.9 158.833 23.22 158.833 18.22C158.833 17.58 158.913 17.14 159.073 16.9C159.273 16.66 159.673 16.54 160.273 16.54C160.873 16.54 161.613 17.14 162.493 18.34C163.373 19.5 163.813 20.64 163.813 21.76C163.813 25.32 163.093 30.3 161.653 36.7C160.213 43.1 158.493 49.18 156.493 54.94C161.013 48.5 164.913 43.3 168.193 39.34C171.513 35.34 173.553 33.34 174.313 33.34C175.113 33.34 175.873 33.72 176.593 34.48C177.313 35.24 177.673 35.94 177.673 36.58Z" fill="#FF873C"/>
</svg>
